<svg width="18" height="20" xmlns="http://www.w3.org/2000/svg" xmlns:xlink="http://www.w3.org/1999/xlink"><defs><path d="M16.814 1.929a1.447 1.447 0 0 0-1.104-.51h-1.397V.98c0-.54-.44-.981-.981-.981H3.856c-.541 0-.981.44-.981.98v.438H1.477c-.426 0-.828.186-1.104.51a1.43 1.43 0 0 0-.324 1.158 7.49 7.49 0 0 0 3.805 5.346c.184.443.393.863.625 1.254.742 1.249 1.665 2.112 2.681 2.53a2.114 2.114 0 0 1-1.633 2.261l-.006.002a.463.463 0 0 0-.355.45v2.123h-.859a1.39 1.39 0 0 0-1.388 1.39v1.095c0 .256.207.463.463.463H13.85a.463.463 0 0 0 .463-.463v-1.096a1.39 1.39 0 0 0-1.389-1.389h-.859V14.93a.463.463 0 0 0-.356-.45l-.005-.002a2.112 2.112 0 0 1-1.631-2.28c.998-.425 1.904-1.28 2.635-2.511a9.88 9.88 0 0 0 .626-1.254 7.49 7.49 0 0 0 3.804-5.346 1.43 1.43 0 0 0-.324-1.157zM.963 2.937a.499.499 0 0 1 .115-.409.523.523 0 0 1 .4-.184h1.397v.851c0 1.336.17 2.63.493 3.812a6.555 6.555 0 0 1-2.405-4.07zm11.961 15.041c.255 0 .463.208.463.463v.633H3.845v-.633c0-.255.207-.463.462-.463h8.617zm-1.784-2.586v1.66H6.092v-1.66h5.048zm-3.834-.926a3.011 3.011 0 0 0 .79-1.997 3.686 3.686 0 0 0 1.04-.006c.01.751.302 1.462.794 2.003H7.306zm6.081-11.27c0 2.28-.524 4.417-1.474 6.017-.906 1.525-2.085 2.364-3.319 2.364s-2.413-.84-3.319-2.364C4.325 7.613 3.8 5.476 3.8 3.196V.98c0-.03.025-.055.056-.055h9.476c.03 0 .055.025.055.055v2.214zm2.838-.259a6.555 6.555 0 0 1-2.406 4.07c.323-1.183.494-2.476.494-3.812v-.851h1.397c.154 0 .3.067.4.184.098.116.139.261.115.41z" id="a"/></defs><g fill-rule="evenodd" fill="none"><use fill="#000" xlink:href="#a"/><use fill="#929292" xlink:href="#a"/></g></svg>