<svg width="17" height="20" xmlns="http://www.w3.org/2000/svg" xmlns:xlink="http://www.w3.org/1999/xlink"><defs><path d="M16.283.303a1.69 1.69 0 0 0-1.55-.199l-8.51 3.135c-.66.243-1.105.88-1.105 1.584v9.58c-.485-.345-1.108-.48-1.792-.383-.77.11-1.533.509-2.147 1.123-.613.613-1.012 1.376-1.122 2.147-.117.82.1 1.553.613 2.066.422.422.994.644 1.64.644.14 0 .281-.01.426-.031.771-.11 1.534-.509 2.147-1.123.614-.613 1.013-1.376 1.123-2.147.017-.122.026-.242.03-.36V8.032L16.088 4.33v6.033c-.486-.345-1.109-.48-1.792-.383-.771.11-1.534.509-2.147 1.123-.614.613-1.013 1.376-1.123 2.147-.117.82.1 1.553.613 2.066.422.422.994.644 1.64.644.14 0 .282-.01.426-.03.771-.111 1.534-.51 2.148-1.123.613-.614 1.012-1.377 1.122-2.148.017-.122.03-10.97.03-10.97 0-.551-.27-1.07-.722-1.385zM5.118 16.288c0 .091-.007.185-.02.282-.083.575-.39 1.153-.864 1.628-.474.474-1.052.78-1.628.863-.526.075-.984-.05-1.287-.354-.303-.304-.429-.76-.354-1.288.083-.575.389-1.153.863-1.627.475-.475 1.053-.781 1.628-.863.1-.015.197-.022.291-.022.403 0 .75.13.996.375.245.245.374.59.375.992v.014zm10.97-12.937L6.036 7.054v-2.23c0-.322.203-.613.504-.724L15.05.965a.76.76 0 0 1 .708.091.76.76 0 0 1 .33.632v1.663zm0 8.895c0 .092-.008.186-.022.283-.082.575-.388 1.153-.862 1.628-.475.474-1.053.78-1.628.863-.527.075-.984-.05-1.288-.354-.303-.303-.429-.76-.353-1.287.082-.576.388-1.154.863-1.628.474-.475 1.052-.781 1.627-.863.1-.015.197-.022.292-.022.403 0 .75.13.996.376.245.245.374.59.375.992v.012z" id="a"/></defs><g fill-rule="evenodd" transform="translate(-.016)" fill="none"><use fill="#000" xlink:href="#a"/><use fill="#929292" xlink:href="#a"/></g></svg>