<svg width="50" height="50" xmlns="http://www.w3.org/2000/svg"><g fill="none" fill-rule="evenodd"><path d="M25 2.5c12.407 0 22.5 10.093 22.5 22.5S37.407 47.5 25 47.5 2.5 37.407 2.5 25 12.593 2.5 25 2.5zM25 0C11.194 0 0 11.193 0 25s11.194 25 25 25 25-11.193 25-25S38.806 0 25 0z" fill="#FFF" fill-rule="nonzero"/><path d="M33 22.09v12.074c0 1.01-.847 1.836-1.882 1.836-1.036 0-1.883-.826-1.883-1.836v-3.588-3.481c0-.906-.708-1.194-1.575-.641l-9.084 5.8c-.867.552-1.576.178-1.576-.831V18.789c0-1.01.708-1.381 1.573-.826l9.09 5.833c.865.555 1.572.268 1.572-.638v-6.322c0-1.01.847-1.836 1.883-1.836 1.035 0 1.882.826 1.882 1.836v5.254z" fill="#FC474C"/></g></svg>