<svg width="60" height="60" xmlns="http://www.w3.org/2000/svg"><g fill="none" fill-rule="evenodd"><path d="M30 3c14.888 0 27 12.112 27 27S44.888 57 30 57 3 44.888 3 30 15.112 3 30 3z" fill="#FC474C"/><path d="M30 0C13.433 0 0 13.432 0 30c0 16.568 13.433 30 30 30s30-13.432 30-30C60 13.432 46.567 0 30 0z" fill="#FC474C"/><path d="M41.987 26.745L26.013 16.232C23.256 14.418 21 15.635 21 18.935V41.06c0 3.3 2.259 4.521 5.021 2.714L41.98 33.33c2.761-1.809 2.764-4.771.007-6.585z" fill="#FFF"/><path d="M39.858 31.124l-14.185 9.283c-.92.603-1.673.196-1.673-.904V20.491c0-1.1.752-1.505 1.671-.9l14.19 9.338c.919.604.918 1.592-.003 2.195z" fill="#FFF"/></g></svg>