<svg width="50" height="50" xmlns="http://www.w3.org/2000/svg"><g fill="none" fill-rule="evenodd"><path d="M25 2.5c12.407 0 22.5 10.093 22.5 22.5S37.407 47.5 25 47.5 2.5 37.407 2.5 25 12.593 2.5 25 2.5zM25 0C11.194 0 0 11.193 0 25s11.194 25 25 25 25-11.193 25-25S38.806 0 25 0z" fill="#FFF" fill-rule="nonzero"/><path d="M17 16.836c0-1.01.847-1.836 1.882-1.836 1.036 0 1.883.826 1.883 1.836v6.323c0 .906.707 1.193 1.572.638l9.09-5.834c.865-.554 1.573-.182 1.573.827v12.633c0 1.01-.709 1.383-1.576.83l-9.084-5.8c-.867-.552-1.575-.264-1.575.641v7.07c0 1.01-.847 1.836-1.883 1.836C17.847 36 17 35.174 17 34.164V28.17 25.13v-8.294z" fill="#FC474C"/></g></svg>