<?xml version="1.0" encoding="UTF-8"?>
<svg width="70px" height="70px" viewBox="0 0 70 70" version="1.1" xmlns="http://www.w3.org/2000/svg" xmlns:xlink="http://www.w3.org/1999/xlink">
    <!-- Generator: Sketch 49.2 (51160) - http://www.bohemiancoding.com/sketch -->
    <title>sound-waves</title>
    <desc>Created with Sketch.</desc>
    <defs></defs>
    <g id="Page-1" stroke="none" stroke-width="1" fill="none" fill-rule="evenodd">
        <g id="推荐音乐-copy" transform="translate(-153.000000, -694.000000)" fill-rule="nonzero">
            <g id="sound-waves" transform="translate(153.000000, 694.000000)">
                <circle id="background_75_" fill="#FC474C" cx="35" cy="35" r="35"></circle>
                <path d="M38.2820703,48.0566406 C38.2444727,48.0566406 38.2064648,48.055 38.168457,48.0517187 C37.5630664,47.9989453 37.0752539,47.5335547 36.994043,46.9314453 L34.5475977,28.786543 L31.8747461,38.2251953 C31.709043,38.8104883 31.1609375,39.2049219 30.551582,39.1680078 C29.9441406,39.1336914 29.4419727,38.6821094 29.3433984,38.0817773 L28.5863867,33.4708008 L25.5390625,40.9586133 C25.3361719,41.4570898 24.845625,41.7755078 24.308457,41.7675781 C23.7701953,41.7560937 23.2948242,41.41375 23.1133984,40.9070703 L20.6763867,34.1036719 L19.5194727,35.7477148 C19.27625,36.0933398 18.8800391,36.2991016 18.4573047,36.2991016 L11.2109375,36.2991016 C10.4935742,36.2991016 9.91210938,35.7176367 9.91210938,35.0002734 C9.91210938,34.2829102 10.4935742,33.7014453 11.2109375,33.7014453 L17.7828711,33.7014453 L19.9925195,30.5614258 C20.2716992,30.1649414 20.7487109,29.9568555 21.2290039,30.0217969 C21.7095703,30.086875 22.1138477,30.4143164 22.2773633,30.8708203 L24.4131836,36.8333984 L27.9179688,28.2216211 C28.1372656,27.6828125 28.6885156,27.3549609 29.2660156,27.4205859 C29.8440625,27.4855273 30.3084961,27.9268555 30.4026953,28.5008008 L30.9626953,31.9117969 L33.7502539,22.0683203 C33.9180078,21.4760547 34.4777344,21.0828516 35.0920117,21.1266016 C35.7058789,21.1702148 36.2049023,21.63875 36.2870703,22.2486523 L38.7959961,40.8564844 L41.8286914,31.3254102 C42.0058789,30.768418 42.5314258,30.3981836 43.1175391,30.4214258 C43.7016016,30.4443945 44.1984375,30.8548242 44.3313281,31.4241211 L45.448457,36.2121484 L46.3919531,34.400625 C46.615625,33.9710547 47.0596875,33.7017188 47.5439453,33.7017188 L55.78125,33.7017188 C56.4986133,33.7017188 57.0800781,34.2831836 57.0800781,35.0005469 C57.0800781,35.7179102 56.4986133,36.299375 55.78125,36.299375 L48.3319922,36.299375 L46.1324609,40.5224805 C45.8814453,41.0042773 45.3572656,41.2788086 44.8180469,41.2111328 C44.2789648,41.1430469 43.8391406,40.7468359 43.7156836,40.2174609 L42.8737695,36.6089063 L39.5191016,47.1521094 C39.3462891,47.6941992 38.8427539,48.0566406 38.2820703,48.0566406 Z" id="Shape" fill="#FFFFFF"></path>
            </g>
        </g>
    </g>
</svg>